<svg width="104" height="91" viewBox="0 0 104 91" fill="none" xmlns="http://www.w3.org/2000/svg">
<path fill-rule="evenodd" clip-rule="evenodd" d="M51.5 91C45.5 90.9999 33.9 89.9002 29.5 83.5002C24.4712 83.6259 14.6248 83.1068 7 80.6122C6.54639 80.4638 6.10065 80.3084 5.66425 80.1457C14.1122 56.8291 25.6476 35 35 35C38.3832 35 40.5984 36.168 42.8876 37.3749C45.3348 38.6652 47.8665 40 52 40C56.1335 40 58.6652 38.6652 61.1124 37.3749C63.4016 36.168 65.6168 35 69 35C78.3524 35 89.8878 56.8291 98.3358 80.1458C90.5638 83.0428 79.828 83.6334 74.5 83.5002C70.1 89.9002 58.5 91 52.5 91.0001L51.5 91ZM100.43 79.2719C94.7303 62.3065 81.3673 31.5 69 31.5C65.2063 31.5 62 32.9686 59.0628 34.314L59.0625 34.3141C56.5803 35.451 54.2901 36.5 52 36.5C49.7099 36.5 47.4197 35.451 44.9375 34.3141L44.9372 34.314C42 32.9686 38.7937 31.5 35 31.5C22.6328 31.5 9.26971 62.3064 3.56982 79.2719C2.44229 78.7445 1.40802 78.156 0.499969 77.5002C1.99997 70.8335 7.19998 53.4002 16 37.0002C15.1666 25.1668 18.2 1.20018 37 0.000183105H50V26.5H54V0.000183105L67 0.000259399C85.8 1.20026 88.8334 25.1669 88 37.0002C96.8 53.4002 102 70.8336 103.5 77.5002C102.592 78.156 101.558 78.7445 100.43 79.2719ZM52 55C50.3431 55 49 56.3431 49 58V61H55V58C55 56.3431 53.6569 55 52 55ZM46 64.6603L43 68.9904V82.25H46V64.6603ZM38 76.2073L41 71.8771V82.25H38V76.2073ZM48 63V82.25H51V63H48ZM56 82.25H53V63H56V82.25ZM58 64.6602V82.25H61V68.9904L58 64.6602ZM66 82.25H63V71.8771L66 76.2073V82.25ZM36 82C36 83.1046 35.1046 84 34 84C32.8954 84 32 83.1046 32 82C32 80.8954 32.8954 80 34 80C35.1046 80 36 80.8954 36 82ZM70 84C71.1046 84 72 83.1046 72 82C72 80.8954 71.1046 80 70 80C68.8954 80 68 80.8954 68 82C68 83.1046 68.8954 84 70 84ZM76 49C76 44.5817 72.4183 41 68 41H62C58.6863 41 56 43.6863 56 47V52C56 53.6569 57.3431 55 59 55H72C74.2091 55 76 53.2091 76 51V49ZM36 41C31.5817 41 28 44.5817 28 49V51C28 53.2091 29.7909 55 32 55H45C46.6569 55 48 53.6569 48 52V47C48 43.6863 45.3137 41 42 41H36Z" fill="#2D2D2D"/>
</svg>
