<svg width="183" height="86" viewBox="0 0 183 86" fill="none" xmlns="http://www.w3.org/2000/svg">
<path fill-rule="evenodd" clip-rule="evenodd" d="M90 0.0479126C83.77 0.347155 77.9045 2.03691 72.7073 4.81358L77.9641 13.9186C78.5164 14.8752 78.1886 16.0983 77.232 16.6506C76.2755 17.2029 75.0523 16.8752 74.5 15.9186L69.2751 6.86881C58.2576 14.219 51 26.762 51 41C51 58.7497 62.2791 73.865 78.0609 79.5696L76.5 76.866C76.2239 76.3877 76.3877 75.7761 76.866 75.5C77.3443 75.2238 77.9559 75.3877 78.2321 75.866L81.6585 81.8008C84.3145 84.377 88.1874 86 92.5 86C96.8126 86 100.685 84.377 103.342 81.8008L106.768 75.866C107.044 75.3877 107.656 75.2238 108.134 75.5C108.612 75.7761 108.776 76.3877 108.5 76.866L107.221 79.0818C122.328 73.0382 133 58.2654 133 41C133 26.7508 125.731 14.1994 114.699 6.85153L109.464 15.9186C108.912 16.8752 107.689 17.2029 106.732 16.6506C105.775 16.0983 105.448 14.8752 106 13.9186L111.265 4.79894C106.075 2.03097 100.219 0.346628 94 0.0479126V16C94 17.1046 93.1046 18 92 18C90.8954 18 90 17.1046 90 16V0.0479126ZM91.706 43.4973L91.7052 43.4973C90.0834 43.4758 86.9099 43.4337 85.5 48C84.8918 49.9698 82.4999 49 84.9999 45C86.4996 43.0004 88.4992 42.0004 91.998 42C95.4969 42.0004 97.4964 43.0004 98.9962 45C101.496 49 99 50 98.5 48C97.0896 43.4344 93.9079 43.4761 92.2827 43.4974H92.2825H92.2824H92.2822H92.2821H92.2819C92.1799 43.4987 92.0841 43.5 91.9953 43.5C91.9057 43.5 91.809 43.4987 91.706 43.4973ZM91.998 42C91.9986 42 91.9993 42 91.9999 42H91.9962C91.9968 42 91.9974 42 91.998 42ZM72 62C73.5 61.3333 77.6 60.9 82 62.5C84.1027 63.2646 85.4746 63.9561 86.5907 64.5187C88.3939 65.4277 89.5293 66 92.0001 66C94.4708 66 95.6062 65.4277 97.4095 64.5187C98.5255 63.9561 99.8974 63.2646 102 62.5C106.4 60.9 110.5 61.3333 112 62C110.833 60.8333 107 59 101 61C99.4684 61.5744 98.3032 62.1488 97.252 62.6671C95.558 63.5022 94.1597 64.1915 92.0001 64.5C89.8404 64.1915 88.4422 63.5022 86.7482 62.6671C85.6969 62.1488 84.5318 61.5744 83 61C77 59 73.1667 60.8333 72 62ZM71 41C71 38.7909 72.7909 37 75 37H76C78.2091 37 80 38.7909 80 41C80 42.6569 78.6569 44 77 44H74C72.3431 44 71 42.6569 71 41ZM109 37C111.209 37 113 38.7909 113 41C113 42.6569 111.657 44 110 44H107C105.343 44 104 42.6569 104 41C104 38.7909 105.791 37 108 37H109ZM48.0974 30.8831C37.7931 30.9703 31.4703 29.4851 28.5 28C13.7 22 3.33333 25.5 0 28C3 28 13 31.5 24.5 48C31.8382 58.5288 42.8453 59.1537 50.2137 57.5376C48.1406 52.3651 47 46.7182 47 40.8049C47 37.3958 47.3791 34.0752 48.0974 30.8831ZM158.5 47.3129C151.544 57.2937 141.291 58.3747 133.965 57.0836C135.925 52.0353 137 46.5456 137 40.8049C137 37.1518 136.565 33.6004 135.743 30.1997C145.552 30.2015 151.611 28.7572 154.5 27.3129C169.3 21.3129 179.667 24.8129 183 27.3129C180 27.3129 170 30.8129 158.5 47.3129Z" fill="#92D192"/>
</svg>
